{"title":"Nepali movie LOOT","uid":7420326,"size":1466384042,"categoryP":"video","categoryS":"hd___movies","magnet":"?xt=urn:btih:915cdf28dc0a23b752f8d1d4e1a3bd445437f1f2&amp;dn=Nepali+movie+LOOT&amp;tr=udp%3A%2F%2Ftracker.openbittorrent.com%3A80&amp;tr=udp%3A%2F%2Fopen.demonii.com%3A1337&amp;tr=udp%3A%2F%2Ftracker.coppersurfer.tk%3A6969&amp;tr=udp%3A%2F%2Fexodus.desync.com%3A6969","seeders":0,"leechers":1,"uploader":"khadgadarai","files":1,"time":1341648127,"description":"General\nFormat                                   : Windows Media\nFile size                                : 1.37 GiB\nDuration                                 : 2h 1mn\nOverall bit rate mode                    : Variable\nOverall bit rate                         : 1 608 Kbps\nMaximum Overall bit rate                 : 4 591 Kbps\nWM/SharedUserRating                      : 99\nMediaFoundationVersion                   : 2.112\n\nVideo\nID                                       : 2\nFormat                                   : VC-1\nFormat profile                           : MP@ML\nCodec ID                                 : WMV3\nCodec ID/Info                            : Windows Media Video 9\nCodec ID/Hint                            : WMV3\nDescription of the codec                 : Windows Media Video 9 - Professional\nDuration                                 : 2h 1mn\nBit rate mode                            : Variable\nBit rate                                 : 1 500 Kbps\nWidth                                    : 720 pixels\nHeight                                   : 480 pixels\nDisplay aspect ratio                     : 3:2\nFrame rate                               : 29.970 fps\nStandard                                 : NTSC\nBit depth                                : 8 bits\nScan type                                : Progressive\nCompression mode                         : Lossy\nBits/(Pixel*Frame)                       : 0.145\nStream size                              : 1.27 GiB (93%)\nLanguage                                 : English (US)\nNumberOfFrames                           : 218614\n\nAudio\nID                                       : 1\nFormat                                   : WMA\nFormat version                           : Version 2\nCodec ID                                 : 161\nCodec ID/Info                            : Windows Media Audio\nDescription of the codec                 : Windows Media Audio 9.2 -  96 kbps, 48 kHz, stereo 2-pass VBR\nDuration                                 : 2h 1mn\nBit rate mode                            : Variable\nBit rate                                 : 96.1 Kbps\nChannel(s)                               : 2 channels\nSampling rate                            : 48.0 KHz\nBit depth                                : 16 bits\nStream size                              : 83.5 MiB (6%)\nLanguage                                 : English (US)\nNumberOfFrames                           : 21387\n\n\n\n\nEcoded by: Khadga Darai\nEmail: &lt;a class=&quot;__cf_email__&quot; href=&quot;/cdn-cgi/l/email-protection&quot; data-cfemail=&quot;b9d8cacdd1d8ced0d7898d8df9c0d8d1d6d697dad6d4&quot;&gt;[email&amp;#160;protected]&lt;/a&gt;&lt;script cf-hash='f9e31' type=&quot;text/javascript&quot;&gt;\n/* &lt;![CDATA[ */!function(){try{var t=&quot;currentScript&quot;in document?document.currentScript:function(){for(var t=document.getElementsByTagName(&quot;script&quot;),e=t.length;e--;)if(t[e].getAttribute(&quot;cf-hash&quot;))return t[e]}();if(t&amp;&amp;t.previousSibling){var e,r,n,i,c=t.previousSibling,a=c.getAttribute(&quot;data-cfemail&quot;);if(a){for(e=&quot;&quot;,r=parseInt(a.substr(0,2),16),n=2;a.length-n;n+=2)i=parseInt(a.substr(n,2),16)^r,e+=String.fromCharCode(i);e=document.createTextNode(e),c.parentNode.replaceChild(e,c)}}}catch(u){}}();/* ]]&gt; */&lt;/script&gt;\nvisit me at facebook:\n","torrent":{"xt":"urn:btih:915cdf28dc0a23b752f8d1d4e1a3bd445437f1f2","amp;dn":"Nepali+movie+LOOT","amp;tr":["udp%3A%2F%2Ftracker.openbittorrent.com%3A80","udp%3A%2F%2Fopen.demonii.com%3A1337","udp%3A%2F%2Ftracker.coppersurfer.tk%3A6969","udp%3A%2F%2Fexodus.desync.com%3A6969"],"infoHash":"915cdf28dc0a23b752f8d1d4e1a3bd445437f1f2","infoHashBuffer":{"type":"Buffer","data":[145,92,223,40,220,10,35,183,82,248,209,212,225,163,189,68,84,55,241,242]},"announce":[],"urlList":[]}}